<?xml version="1.0" encoding="utf-8"?>
<!-- Generator: Adobe Illustrator 24.2.2, SVG Export Plug-In . SVG Version: 6.00 Build 0)  -->
<svg version="1.1" id="Layer_1" xmlns="http://www.w3.org/2000/svg" xmlns:xlink="http://www.w3.org/1999/xlink" x="0px" y="0px"
	 viewBox="0 0 512 512" style="enable-background:new 0 0 512 512;" xml:space="preserve">
<style type="text/css">
	.st0{fill:#E2D4FF;}
	.st1{fill:#C8AFF8;}
	.st2{fill:#D3C0FB;}
	.st3{fill:#FF5F4D;}
	.st4{fill:#FFFFFF;}
	.st5{fill:#A780F8;}
</style>
<path class="st0" d="M128,0c-17.6,0-32,14.4-32,32v448c0,17.6,14.4,32,32,32h320c17.6,0,32-14.4,32-32V128L352,0H128z"/>
<path class="st1" d="M384,128h96L352,0v96C352,113.6,366.4,128,384,128z"/>
<path class="st2" d="M480,224l-96-96h96V224z"/>
<path class="st3" d="M416,416c0,8.8-7.2,16-16,16H48c-8.8,0-16-7.2-16-16V256c0-8.8,7.2-16,16-16h352c8.8,0,16,7.2,16,16V416z"/>
<path class="st4" d="M121.4,384c-4.1-2.3-6.7-6.9-4.1-12.3L154,300c3.5-6.8,12.7-7,15.9,0l36.1,71.8c5.2,10-10.2,17.9-14.8,7.9
	l-5.6-11.2h-47.2l-5.5,11.3C130.8,384,126,384.9,121.4,384L121.4,384z M176.4,351.5L162,319.9l-15.7,31.6H176.4z M241.6,378.3
	l-33.8-70.7c-5-10.1,10.1-18.4,15.7-7.8l11.4,25.7l14.7,33.8l14.4-33.8l11.4-25.7c5.1-9.7,20-3.6,15.6,7l-32.6,71.5
	C255.5,386.3,246.4,388.2,241.6,378.3z M306.9,303.2c0-10.5,16.9-10.9,16.9,0v73c0,10.6-16.9,10.9-16.9,0V303.2z"/>
<path class="st5" d="M400,432H96v16h304c8.8,0,16-7.2,16-16v-16C416,424.8,408.8,432,400,432z"/>
</svg>
