<?xml version="1.0" encoding="utf-8"?>
<!-- Generator: Adobe Illustrator 24.2.2, SVG Export Plug-In . SVG Version: 6.00 Build 0)  -->
<svg version="1.1" id="Layer_1" xmlns="http://www.w3.org/2000/svg" xmlns:xlink="http://www.w3.org/1999/xlink" x="0px" y="0px"
	 viewBox="0 0 512 512" style="enable-background:new 0 0 512 512;" xml:space="preserve">
<style type="text/css">
	.st0{fill:#E2D4FF;}
	.st1{fill:#C8AFF8;}
	.st2{fill:#D3C0FB;}
	.st3{fill:#9BAACF;}
	.st4{fill:#FFFFFF;}
	.st5{fill:#A780F8;}
</style>
<path class="st0" d="M128,0c-17.6,0-32,14.4-32,32v448c0,17.6,14.4,32,32,32h320c17.6,0,32-14.4,32-32V128L352,0H128z"/>
<path class="st1" d="M384,128h96L352,0v96C352,113.6,366.4,128,384,128z"/>
<path class="st2" d="M480,224l-96-96h96V224z"/>
<path class="st3" d="M416,416c0,8.8-7.2,16-16,16H48c-8.8,0-16-7.2-16-16V256c0-8.8,7.2-16,16-16h352c8.8,0,16,7.2,16,16V416z"/>
<path class="st4" d="M118.1,384c-4.2,0-8.8-2.3-8.8-7.9v-72.7c0-4.6,4.6-7.9,8.8-7.9h29.3c58.5,0,57.2,88.5,1.2,88.5H118.1z
	 M126.1,311.1v57.3h21.2c34.5,0,36.1-57.3,0-57.3H126.1z M208.6,303.2c0-4.2,3.6-7.8,8.1-7.8c4.1,0,7.6,3.6,7.6,7.8v64.1H259
	c12.5,0,12.8,16.8,0,16.8h-42.3c-4.5,0-8.1-3.2-8.1-7.8L208.6,303.2L208.6,303.2L208.6,303.2z M283.6,303.2c0-4.2,3.6-7.8,8.1-7.8
	c4.1,0,7.6,3.6,7.6,7.8v64.1H334c12.5,0,12.8,16.8,0,16.8h-42.3c-4.5,0-8.1-3.2-8.1-7.8L283.6,303.2L283.6,303.2z"/>
<path class="st5" d="M400,432H96v16h304c8.8,0,16-7.2,16-16v-16C416,424.8,408.8,432,400,432z"/>
</svg>
