<?xml version="1.0" encoding="utf-8"?>
<!-- Generator: Adobe Illustrator 24.2.2, SVG Export Plug-In . SVG Version: 6.00 Build 0)  -->
<svg version="1.1" id="Layer_1" xmlns="http://www.w3.org/2000/svg" xmlns:xlink="http://www.w3.org/1999/xlink" x="0px" y="0px"
	 viewBox="0 0 200 200" enable-background="new 0 0 200 200" xml:space="preserve">
<linearGradient id="SVGID_1_" gradientUnits="userSpaceOnUse" x1="-14.1286" y1="12.2932" x2="185.6965" y2="216.7744">
	<stop  offset="0" style="stop-color:#A77DFF"/>
	<stop  offset="0.5" style="stop-color:#7D41F4"/>
	<stop  offset="1" style="stop-color:#5B0EEB"/>
</linearGradient>
<path fill="url(#SVGID_1_)" d="M164.2,23C144.1,7.7,116.4,0,80.9,0H0v200c0,0,86.9,0,90.7,0c32.1,0,58.4-9.5,78.7-28.6
	c20.4-19,30.6-43.6,30.6-73.7C200,66.3,188.1,41.4,164.2,23z M135.2,152.7c-4,3.2-8.2,5.4-12.7,6.6c-4.5,1.3-10.6,1.9-18.3,1.9H52.7
	V38.7h46.7c27.7,0,41.6,10.4,41.6,31.1c0,10.3-4.7,18.9-14.2,25.7c13.8,5.7,20.6,15.8,20.6,30.4
	C147.3,137.2,143.3,146.1,135.2,152.7z"/>
</svg>
