<?xml version="1.0" encoding="utf-8"?>
<!-- Generator: Adobe Illustrator 24.2.2, SVG Export Plug-In . SVG Version: 6.00 Build 0)  -->
<svg version="1.1" id="OBJECTS" xmlns="http://www.w3.org/2000/svg" xmlns:xlink="http://www.w3.org/1999/xlink" x="0px" y="0px"
	 viewBox="0 0 388.7 385.5" enable-background="new 0 0 388.7 385.5" xml:space="preserve">
<pattern  x="-714.6" y="-56" width="79.5" height="79.5" patternUnits="userSpaceOnUse" id="Unnamed_Pattern_2" viewBox="0 -79.5 79.5 79.5" overflow="visible">
	<g>
		<rect y="-79.5" fill="none" width="79.5" height="79.5"/>
		<rect x="0" y="-79.5" fill="#5B0EEB" width="79.5" height="79.5"/>
	</g>
</pattern>
<path fill="#D3C0FB" d="M277.4,347.8c-9.7-0.4-19-1.9-27.3-4.3c-9-2.6-23.1-5.6-38.6-4.4c-14.6,1.1-27.5,3.8-36.1,7
	c-5.3,2-11.4,3-17.5,2.9c-10.2-0.3-22,0-34.5,1c-39,3.1-65.4,4.5-64.8,12c0.6,7.4,27.9,18,66.9,15c4.6-0.4,9.2-0.8,13.5-1.3
	c11.1-1.3,22.2-0.6,31.9,1.8c17.5,4.4,49.1,10.1,84.5,7.4c53.8-4.2,87.6-10.2,86.8-20.2C341.8,357.7,303.6,349,277.4,347.8z"/>
<g>
	<linearGradient id="SVGID_1_" gradientUnits="userSpaceOnUse" x1="59.105" y1="276.4258" x2="59.105" y2="327.8562">
		<stop  offset="0" style="stop-color:#BDE6C3"/>
		<stop  offset="1" style="stop-color:#39B54A"/>
	</linearGradient>
	<path fill="url(#SVGID_1_)" d="M69.8,282.8c-4.5-2.5-9.3-4.1-14.1-5.1c-0.6-0.1-1.2,0.4-1.2,1v0c0,1.1-1.6,1.4-1.9,0.3l-0.5-1.4
		c-0.1-0.4-0.4-0.6-0.8-0.7c-4.1-0.5-8.1-0.6-11.8-0.5c-0.5,0-1,0.5-1,1v1.1c0,1-1.2,1.4-1.8,0.6l-1.4-2c-0.2-0.3-0.6-0.4-0.9-0.4
		c-7.2,0.7-12.7,2.1-14.8,2.7c-0.5,0.2-0.8,0.7-0.7,1.2c1,3.5,5.2,16.2,14.2,27.4c0.2,0.3,0.6,0.4,1,0.4l1.8-0.3
		c1.1-0.2,1.7,1.3,0.7,1.9l-0.2,0.1c-0.6,0.3-0.7,1.1-0.3,1.6c3.5,3.7,7.6,7.2,12.4,9.8c20,11,45.1,4.8,50.2,3.3
		c0.5-0.2,0.8-0.7,0.7-1.2C97.8,318.4,89.7,293.8,69.8,282.8z"/>
	<g>
		
			<line fill="none" stroke="#FFFFFF" stroke-width="1.6285" stroke-linecap="round" stroke-miterlimit="10" x1="31.8" y1="287.1" x2="94.3" y2="321.5"/>
		
			<line fill="none" stroke="#FFFFFF" stroke-width="1.6285" stroke-linecap="round" stroke-miterlimit="10" x1="38.5" y1="297" x2="45.3" y2="295.1"/>
		
			<line fill="none" stroke="#FFFFFF" stroke-width="1.6285" stroke-linecap="round" stroke-miterlimit="10" x1="52.8" y1="309.2" x2="64.7" y2="305.8"/>
		
			<line fill="none" stroke="#FFFFFF" stroke-width="1.6285" stroke-linecap="round" stroke-miterlimit="10" x1="65.2" y1="320.4" x2="82.2" y2="315.4"/>
		
			<line fill="none" stroke="#FFFFFF" stroke-width="1.6285" stroke-linecap="round" stroke-miterlimit="10" x1="43.6" y1="287.8" x2="45.5" y2="294.6"/>
		
			<line fill="none" stroke="#FFFFFF" stroke-width="1.6285" stroke-linecap="round" stroke-miterlimit="10" x1="61.5" y1="293.5" x2="65" y2="305.3"/>
		
			<line fill="none" stroke="#FFFFFF" stroke-width="1.6285" stroke-linecap="round" stroke-miterlimit="10" x1="77.6" y1="298" x2="82.5" y2="315"/>
	</g>
</g>
<g>
	<g>
		
			<linearGradient id="SVGID_2_" gradientUnits="userSpaceOnUse" x1="337.9645" y1="227.1055" x2="337.9645" y2="325.137" gradientTransform="matrix(1 6.000000e-04 -6.000000e-04 1 -1.981 -4.7335)">
			<stop  offset="0" style="stop-color:#B8E3F5"/>
			<stop  offset="1" style="stop-color:#29ABE2"/>
		</linearGradient>
		<path fill="url(#SVGID_2_)" d="M371.3,267.5l1.4,0c2.4,0,4.5-1.5,5.3-3.7c5.4-15.4,6.6-30.1,6.8-37c0.1-2.3-1.8-4.2-4.2-4.2
			c-3.1,0.1-7.8,0.4-13.3,1.2c-3.1,0.4-5.8,2.1-7.6,4.6l-1.3,1.8c-0.6,0.8-1.9,0.4-1.9-0.6l0,0c0-2-1.9-3.5-3.8-3
			c-0.3,0.1-0.5,0.1-0.8,0.2c-3.9,1-7.3,3.6-9.3,7.2l-4.6,8.2c-0.5,0.9-1.9,0.6-1.9-0.5l0-4.9c0-2.2-2.3-3.6-4.2-2.6
			c-6.9,3.5-13.6,8-19.5,13.9c-24.7,24.7-25.7,64.6-25.7,71.4c0,0.6,0.5,1,1,1c6.8,0,46.7-0.9,71.4-25.6c6-6,10.6-12.8,14.1-19.9
			c0.9-1.8,0.2-4-1.5-5l-1.1-0.6C369.9,268.9,370.3,267.5,371.3,267.5z"/>
		<g>
			
				<line fill="none" stroke="#FFFFFF" stroke-width="1.4387" stroke-linecap="round" stroke-miterlimit="10" x1="368.9" y1="238.6" x2="293.2" y2="314.1"/>
			
				<line fill="none" stroke="#FFFFFF" stroke-width="1.4387" stroke-linecap="round" stroke-miterlimit="10" x1="351.8" y1="244" x2="351.8" y2="254.6"/>
			
				<line fill="none" stroke="#FFFFFF" stroke-width="1.4387" stroke-linecap="round" stroke-miterlimit="10" x1="328.3" y1="259.6" x2="328.3" y2="278.1"/>
			
				<line fill="none" stroke="#FFFFFF" stroke-width="1.4387" stroke-linecap="round" stroke-miterlimit="10" x1="307.1" y1="272.8" x2="307.1" y2="299.3"/>
			
				<line fill="none" stroke="#FFFFFF" stroke-width="1.4387" stroke-linecap="round" stroke-miterlimit="10" x1="362.9" y1="255.2" x2="352.3" y2="255.2"/>
			
				<line fill="none" stroke="#FFFFFF" stroke-width="1.4387" stroke-linecap="round" stroke-miterlimit="10" x1="347.3" y1="278.7" x2="328.8" y2="278.7"/>
			
				<line fill="none" stroke="#FFFFFF" stroke-width="1.4387" stroke-linecap="round" stroke-miterlimit="10" x1="334.1" y1="299.9" x2="307.6" y2="299.8"/>
		</g>
	</g>
	<path opacity="0.28" d="M358.1,296.1c-2.4-1.1-4.9-2.2-7.6-3.1c-1.1-0.4-2.4-0.4-3.5,0l-2.9,1c-0.9,0.3-1.7-0.8-1.1-1.6
		c0.4-0.6,0.1-1.5-0.6-1.6c-4.9-1-10.2-1.4-15.5-0.8c-18.7,2.1-33.4,15.8-39.9,22.9c-0.2,3.1-0.2,5.4-0.2,6.6c0,0.1,0,0.2,0,0.2
		c0.4,0.3,0.7,0.5,1.1,0.8C295,320.6,333.5,319.5,358.1,296.1z"/>
	
		<linearGradient id="SVGID_3_" gradientUnits="userSpaceOnUse" x1="338.4436" y1="288.0587" x2="355.8867" y2="340.1157" gradientTransform="matrix(0.9807 0.1956 -0.1956 0.9807 48.0754 -64.7557)">
		<stop  offset="0" style="stop-color:#71C8EF"/>
		<stop  offset="1" style="stop-color:#0F9AD6"/>
	</linearGradient>
	<path fill="url(#SVGID_3_)" d="M346.9,298.3l-2.9,0.8c-1,0.3-1.7-0.9-1.1-1.6l0,0c0.5-0.6,0.2-1.4-0.5-1.6
		c-4.9-1.2-10.1-1.9-15.4-1.5c-22.7,1.4-40.5,20.2-44.1,24.2c-0.4,0.4-0.3,1.1,0.1,1.4c3.8,3.3,21.4,17.7,42.2,18.5
		c0.7,0,1.2-0.6,1-1.3l-0.2-0.7c-0.3-1,0.9-1.7,1.6-1l1.6,1.4c1.2,1,2.7,1.5,4.3,1.3c18.3-2.7,32.9-15.9,38.5-21.7
		c1.5-1.5,1.3-4-0.3-5.3c-3.9-3.1-11.6-8.6-21.2-12.5C349.3,298,348,297.9,346.9,298.3z"/>
	<g>
		
			<line fill="none" stroke="#0F9AD6" stroke-width="1.4387" stroke-linecap="round" stroke-miterlimit="10" x1="359.4" y1="314.4" x2="288.3" y2="318.9"/>
		
			<line fill="none" stroke="#0F9AD6" stroke-width="1.4387" stroke-linecap="round" stroke-miterlimit="10" x1="348.4" y1="309.6" x2="343.8" y2="314.9"/>
		
			<line fill="none" stroke="#0F9AD6" stroke-width="1.4387" stroke-linecap="round" stroke-miterlimit="10" x1="329.8" y1="307" x2="321.7" y2="316.3"/>
		
			<line fill="none" stroke="#0F9AD6" stroke-width="1.4387" stroke-linecap="round" stroke-miterlimit="10" x1="313.4" y1="304.3" x2="301.7" y2="317.5"/>
		
			<line fill="none" stroke="#0F9AD6" stroke-width="1.4387" stroke-linecap="round" stroke-miterlimit="10" x1="349.1" y1="320" x2="343.8" y2="315.4"/>
		
			<line fill="none" stroke="#0F9AD6" stroke-width="1.4387" stroke-linecap="round" stroke-miterlimit="10" x1="331" y1="324.9" x2="321.7" y2="316.8"/>
		
			<line fill="none" stroke="#0F9AD6" stroke-width="1.4387" stroke-linecap="round" stroke-miterlimit="10" x1="315" y1="329.7" x2="301.8" y2="318.1"/>
	</g>
</g>
<g>
	
		<linearGradient id="SVGID_4_" gradientUnits="userSpaceOnUse" x1="250.5906" y1="183.6269" x2="250.5906" y2="243.0765" gradientTransform="matrix(0.8536 -0.521 0.521 0.8536 -34.8147 169.3028)">
		<stop  offset="0" style="stop-color:#BDE6C3"/>
		<stop  offset="1" style="stop-color:#39B54A"/>
	</linearGradient>
	<path fill="url(#SVGID_4_)" d="M305,221.8c-0.5,0.1-0.9-0.5-0.6-0.9l1.4-1.7c0.1-0.1,0.1-0.3,0.1-0.4c-0.5-4.3-1.8-8.4-3.5-12
		c-0.1-0.2-0.4-0.4-0.7-0.3l-0.2,0.1c-0.5,0.2-1-0.5-0.6-0.9l0.3-0.4c0.2-0.2,0.2-0.4,0.1-0.6c-4.8-8.9-11.8-15.1-13.6-16.6
		c-0.2-0.2-0.6-0.2-0.8,0.1c-0.9,1-3.2,3.9-5.7,8.1c-0.1,0.2-0.1,0.4,0,0.6c0.2,0.3,0.6,0.9,0.9,1.4c0,0.1,0,0.2,0,0.2
		c-0.1,0.1-0.2,0.1-0.2,0l-0.7-0.7c-0.3-0.2-0.7-0.2-0.9,0.2c-0.7,1.2-1.3,2.5-1.9,3.8c-0.1,0.1-0.1,0.3,0,0.5l1,2.5
		c0.1,0.2-0.2,0.4-0.4,0.3l-0.9-0.7c-0.3-0.2-0.7-0.1-0.9,0.2c-2.1,5.3-3.5,11.4-2.9,17.7c1.4,16.6,15.6,29.3,18.3,31.5
		c0.2,0.2,0.6,0.2,0.8-0.1c2.1-2.5,12.8-15.9,12.8-31.4c0-0.4-0.3-0.6-0.7-0.6L305,221.8z"/>
	<g>
		
			<line fill="none" stroke="#FFFFFF" stroke-width="1.0379" stroke-linecap="round" stroke-miterlimit="10" x1="288.3" y1="198.5" x2="292.7" y2="249.7"/>
		
			<line fill="none" stroke="#FFFFFF" stroke-width="1.0379" stroke-linecap="round" stroke-miterlimit="10" x1="285" y1="206.5" x2="288.9" y2="209.7"/>
		
			<line fill="none" stroke="#FFFFFF" stroke-width="1.0379" stroke-linecap="round" stroke-miterlimit="10" x1="283.5" y1="219.9" x2="290.3" y2="225.7"/>
		
			<line fill="none" stroke="#FFFFFF" stroke-width="1.0379" stroke-linecap="round" stroke-miterlimit="10" x1="281.8" y1="231.8" x2="291.5" y2="240"/>
		
			<line fill="none" stroke="#FFFFFF" stroke-width="1.0379" stroke-linecap="round" stroke-miterlimit="10" x1="292.6" y1="205.8" x2="289.3" y2="209.7"/>
		
			<line fill="none" stroke="#FFFFFF" stroke-width="1.0379" stroke-linecap="round" stroke-miterlimit="10" x1="296.4" y1="218.8" x2="290.7" y2="225.6"/>
		
			<line fill="none" stroke="#FFFFFF" stroke-width="1.0379" stroke-linecap="round" stroke-miterlimit="10" x1="300.1" y1="230.3" x2="291.9" y2="240"/>
	</g>
</g>
<g>
	<path fill="#0073AA" d="M221.9,313.2h-40.2c-3.7,0-6.7-3-6.7-6.7v-8.9h53.6v8.9C228.6,310.2,225.6,313.2,221.9,313.2z"/>
	<polygon opacity="0.19" points="228.6,307.4 228.6,297.6 175.1,297.6 175.1,300.6 	"/>
	
		<linearGradient id="SVGID_5_" gradientUnits="userSpaceOnUse" x1="56.6356" y1="78.8339" x2="31.0931" y2="146.4742" gradientTransform="matrix(0 -1 1 0 17.9223 317.8213)">
		<stop  offset="6.531980e-02" style="stop-color:#FF337C"/>
		<stop  offset="0.3322" style="stop-color:#C2227D"/>
		<stop  offset="1" style="stop-color:#480080"/>
	</linearGradient>
	<path fill="url(#SVGID_5_)" d="M160,210.8l-23.2,19.4c-10.6,8.8-16.7,21.9-16.7,35.6v78.5l0,0c9,0,16.2-7.3,16.2-16.2v-9.2
		c0-20.2,8.9-39.4,24.4-52.3l21.4-17.9L160,210.8z"/>
	
		<linearGradient id="SVGID_6_" gradientUnits="userSpaceOnUse" x1="47.7442" y1="184.4418" x2="39.7031" y2="249.244" gradientTransform="matrix(0 -1 1 0 17.9223 317.8213)">
		<stop  offset="6.531980e-02" style="stop-color:#FF337C"/>
		<stop  offset="0.3322" style="stop-color:#C2227D"/>
		<stop  offset="1" style="stop-color:#480080"/>
	</linearGradient>
	<path fill="url(#SVGID_6_)" d="M243.2,210.8l23.2,19.4C276.9,239,283,252,283,265.8v78.5l0,0c-9,0-16.2-7.3-16.2-16.2v-9.2
		c0-20.2-8.9-39.4-24.4-52.3L221,248.7L243.2,210.8z"/>
	<path fill="#0073AA" d="M228.2,298.7h-52.7c-3.7,0-6.5-3.2-6.1-6.9l4.7-38.7h55.5l4.7,38.7C234.8,295.5,231.9,298.7,228.2,298.7z"
		/>
	<polygon opacity="0.19" points="231.2,266.2 229.6,256.3 174.1,256.3 172.5,266.2 	"/>
	
		<radialGradient id="SVGID_7_" cx="225.9773" cy="111.1126" r="181.1767" fx="258.5908" fy="89.6413" gradientTransform="matrix(0 -1 1 0 17.9223 317.8213)" gradientUnits="userSpaceOnUse">
		<stop  offset="0.1503" style="stop-color:#AD33FF"/>
		<stop  offset="1" style="stop-color:#5C64ED"/>
	</radialGradient>
	<path fill="url(#SVGID_7_)" d="M171.6,41.7c-10.6,33.4-19.4,77.1-19.4,119.8c0,30.6,2.7,59.1,7.5,83.3c2,10.2,11,17.5,21.4,17.5
		h41.7c10.4,0,19.4-7.3,21.4-17.5c4.7-24.2,7.5-52.7,7.5-83.3c0-42.8-9.4-86.4-20.2-119.8H171.6z"/>
	<path opacity="0.3" fill="#450B82" d="M207.2,41.7h-35.6c-2.3,7.2-4.5,14.9-6.5,22.9C163,72.9,200.4,53.4,207.2,41.7z"/>
	<path opacity="0.19" d="M234.9,53.2L234.9,53.2c-6.8,0-12,6.2-10.7,12.9c5.2,27.6,9.1,60.3,8.7,95.5c-0.4,30.6-2.7,59.1-7.5,83.3
		c-2,10.2-11,17.5-21.4,17.5h18.6c10.5,0,19.5-7.5,21.5-17.8c7.1-37.2,7.4-69.6,7.4-83C251.6,123.5,244.2,84.8,234.9,53.2z"/>
	<circle opacity="0.25" cx="201.5" cy="147" r="35.5"/>
	<linearGradient id="SVGID_8_" gradientUnits="userSpaceOnUse" x1="166.0527" y1="143.3115" x2="236.9881" y2="143.3115">
		<stop  offset="6.531980e-02" style="stop-color:#FF337C"/>
		<stop  offset="0.3322" style="stop-color:#C2227D"/>
		<stop  offset="1" style="stop-color:#480080"/>
	</linearGradient>
	<circle fill="url(#SVGID_8_)" cx="201.5" cy="143.3" r="35.5"/>
	<path opacity="0.21" d="M201.5,107.8c-0.1,0-0.3,0-0.4,0v70.9c0.1,0,0.3,0,0.4,0c19.6,0,35.5-15.9,35.5-35.5
		C237,123.7,221.1,107.8,201.5,107.8z"/>
	<linearGradient id="SVGID_9_" gradientUnits="userSpaceOnUse" x1="185.7196" y1="126.8612" x2="206.121" y2="148.101">
		<stop  offset="0" style="stop-color:#AFE6FF"/>
		<stop  offset="1" style="stop-color:#41B4E6"/>
	</linearGradient>
	<circle fill="url(#SVGID_9_)" cx="201.5" cy="143.3" r="24.3"/>
	<path opacity="0.12" d="M201.5,123.2c12.7,0,23.1,9.8,24.2,22.2c0.1-0.7,0.1-1.4,0.1-2.1c0-13.4-10.9-24.3-24.3-24.3
		c-13.4,0-24.3,10.9-24.3,24.3c0,0.7,0,1.4,0.1,2.1C178.4,133,188.8,123.2,201.5,123.2z"/>
	
		<linearGradient id="SVGID_10_" gradientUnits="userSpaceOnUse" x1="42.1377" y1="167.4007" x2="42.1377" y2="183.4831" gradientTransform="matrix(0 -1 1 0 17.9223 317.8213)">
		<stop  offset="6.531980e-02" style="stop-color:#FF337C"/>
		<stop  offset="0.3322" style="stop-color:#C2227D"/>
		<stop  offset="1" style="stop-color:#480080"/>
	</linearGradient>
	<path fill="url(#SVGID_10_)" d="M202.2,343.9l-0.4,0.4l0,0c-3.7-4.1-5.8-9.4-6-14.9l-3.3-102.6c-0.2-7.6,3.2-14.9,9.2-19.6l0,0l0,0
		c6.1,4.7,9.5,12,9.2,19.7l-3.4,102.9C207.5,334.8,205.6,339.8,202.2,343.9z"/>
	<path opacity="0.21" d="M202.2,343.9l-0.4,0.4l0,0l0-137.2l0,0l0,0c6.1,4.7,9.5,12,9.2,19.7l-3.4,102.9
		C207.5,334.8,205.6,339.8,202.2,343.9z"/>
</g>
<linearGradient id="SVGID_11_" gradientUnits="userSpaceOnUse" x1="-153.4685" y1="269.9322" x2="-143.0452" y2="301.0392" gradientTransform="matrix(-0.4417 -0.8972 0.8972 -0.4417 -246.1936 261.8474)">
	<stop  offset="0" style="stop-color:#BDE6C3"/>
	<stop  offset="1" style="stop-color:#39B54A"/>
</linearGradient>
<path fill="url(#SVGID_11_)" d="M62.1,264.1l1.4,1.1c0.5,0.4,0.2,1.1-0.4,1.1l0,0c-0.4,0-0.8,0.4-0.6,0.9c1.2,2.8,2.8,5.5,4.9,7.9
	c9,10.3,24.3,11.9,27.5,12.1c0.3,0,0.6-0.2,0.6-0.6c0.2-3,0.6-16.6-6.6-26.7c-0.2-0.3-0.7-0.3-1,0l-0.3,0.4
	c-0.4,0.5-1.1,0.2-1.1-0.4l0.1-1.3c0.1-0.9-0.3-1.8-1-2.5c-7.9-7.7-19.5-9.8-24.3-10.4c-1.3-0.1-2.4,0.8-2.4,2.1
	c-0.1,3,0.1,8.6,1.8,14.6C61.1,263,61.5,263.6,62.1,264.1z"/>
<g>
	
		<line fill="none" stroke="#0F9AD6" stroke-width="0.8597" stroke-linecap="round" stroke-miterlimit="10" x1="65.2" y1="252.3" x2="93.2" y2="284.4"/>
	
		<line fill="none" stroke="#0F9AD6" stroke-width="0.8597" stroke-linecap="round" stroke-miterlimit="10" x1="66.9" y1="259.2" x2="71.1" y2="259.5"/>
	
		<line fill="none" stroke="#0F9AD6" stroke-width="0.8597" stroke-linecap="round" stroke-miterlimit="10" x1="72.5" y1="269" x2="79.8" y2="269.5"/>
	
		<line fill="none" stroke="#0F9AD6" stroke-width="0.8597" stroke-linecap="round" stroke-miterlimit="10" x1="77.1" y1="277.8" x2="87.7" y2="278.5"/>
	
		<line fill="none" stroke="#0F9AD6" stroke-width="0.8597" stroke-linecap="round" stroke-miterlimit="10" x1="71.6" y1="255.1" x2="71.3" y2="259.3"/>
	
		<line fill="none" stroke="#0F9AD6" stroke-width="0.8597" stroke-linecap="round" stroke-miterlimit="10" x1="80.6" y1="261.9" x2="80.1" y2="269.3"/>
	
		<line fill="none" stroke="#0F9AD6" stroke-width="0.8597" stroke-linecap="round" stroke-miterlimit="10" x1="88.6" y1="267.7" x2="87.9" y2="278.3"/>
</g>
<g>
	
		<line fill="none" stroke="#29ABE2" stroke-width="2.5248" stroke-linecap="round" stroke-miterlimit="10" x1="163.8" y1="369.4" x2="132.6" y2="188.9"/>
	
		<line fill="none" stroke="#29ABE2" stroke-width="2.5248" stroke-linecap="round" stroke-miterlimit="10" x1="167.6" y1="188.9" x2="207.2" y2="369.4"/>
	<line fill="none" stroke="#29ABE2" stroke-width="2.5248" stroke-miterlimit="10" x1="135.1" y1="202.5" x2="170.7" y2="202.5"/>
	<line fill="none" stroke="#29ABE2" stroke-width="2.5248" stroke-miterlimit="10" x1="131.2" y1="221.3" x2="174.1" y2="221.3"/>
	<line fill="none" stroke="#29ABE2" stroke-width="2.5248" stroke-miterlimit="10" x1="135.5" y1="240" x2="178.3" y2="240"/>
	<line fill="none" stroke="#29ABE2" stroke-width="2.5248" stroke-miterlimit="10" x1="139.7" y1="258.8" x2="182.5" y2="258.8"/>
	<line fill="none" stroke="#29ABE2" stroke-width="2.5248" stroke-miterlimit="10" x1="143.9" y1="277.6" x2="186.7" y2="277.6"/>
	<line fill="none" stroke="#29ABE2" stroke-width="2.5248" stroke-miterlimit="10" x1="148.1" y1="296.3" x2="190.9" y2="296.3"/>
	<line fill="none" stroke="#29ABE2" stroke-width="2.5248" stroke-miterlimit="10" x1="154.4" y1="315.1" x2="195.1" y2="315.1"/>
	<line fill="none" stroke="#29ABE2" stroke-width="2.5248" stroke-miterlimit="10" x1="156.5" y1="333.9" x2="199.3" y2="333.9"/>
	<line fill="none" stroke="#29ABE2" stroke-width="2.5248" stroke-miterlimit="10" x1="160.7" y1="352.7" x2="203.5" y2="352.7"/>
	
		<line fill="none" stroke="#70C7EC" stroke-width="2.5248" stroke-linecap="round" stroke-miterlimit="10" x1="136.3" y1="369.4" x2="167.6" y2="188.9"/>
	
		<line fill="none" stroke="#70C7EC" stroke-width="2.5248" stroke-linecap="round" stroke-miterlimit="10" x1="132.6" y1="188.9" x2="93" y2="369.4"/>
	<line fill="none" stroke="#70C7EC" stroke-width="2.5248" stroke-miterlimit="10" x1="165" y1="202.5" x2="130.5" y2="202.5"/>
	<line fill="none" stroke="#70C7EC" stroke-width="2.5248" stroke-miterlimit="10" x1="161.6" y1="221.3" x2="126.1" y2="221.3"/>
	<line fill="none" stroke="#70C7EC" stroke-width="2.5248" stroke-miterlimit="10" x1="158.5" y1="240" x2="121.9" y2="240"/>
	<line fill="none" stroke="#70C7EC" stroke-width="2.5248" stroke-miterlimit="10" x1="155.3" y1="258.8" x2="117.7" y2="258.8"/>
	<line fill="none" stroke="#70C7EC" stroke-width="2.5248" stroke-miterlimit="10" x1="152.1" y1="277.6" x2="113.5" y2="277.6"/>
	<line fill="none" stroke="#70C7EC" stroke-width="2.5248" stroke-miterlimit="10" x1="148.9" y1="296.3" x2="109.2" y2="296.3"/>
	<line fill="none" stroke="#70C7EC" stroke-width="2.5248" stroke-miterlimit="10" x1="145.8" y1="315.1" x2="105" y2="315.1"/>
	<line fill="none" stroke="#70C7EC" stroke-width="2.5248" stroke-miterlimit="10" x1="143.6" y1="332.8" x2="100.8" y2="332.8"/>
	<line fill="none" stroke="#70C7EC" stroke-width="2.5248" stroke-miterlimit="10" x1="139.4" y1="352.7" x2="96.6" y2="352.7"/>
</g>
<g>
	<path fill="#FAB9AF" d="M157.2,220h2.9c-0.2-0.4-0.5-0.8-0.7-1.2c-0.5-0.9-1.4-1-2.5-1.4l-1.8-0.5c-0.5-0.1-1-0.2-1.5-0.2l0,0
		c-0.7,0-1.5,0.1-2.2,0.2l-3,0.7l0.9,3l1.9-0.2C152,221.6,156.3,220,157.2,220z"/>
	<path fill="#FF5F4D" d="M113.6,220.8c-0.1-4.9,1.6-11-8.7-21.1c-0.3-0.3-0.8-0.3-1.1-0.1c-0.9,0.7-3.6,1-4.9,2.2
		c-2.6,2.3-7.1,9.4-5.8,12.6c2.7,6.8,3.3,11.6,2.9,19.3c-0.3,7.9,7.9,15.8,14.1,13.7c2.2-0.8,3.5-2.4,4.2-4.3
		c0.5-1.5,0.4-3.1-0.4-4.5c0,0,0,0,0,0C111.4,234.1,113.7,237.2,113.6,220.8z"/>
	<path fill="#FAB9AF" d="M121.4,291c3-16.4,1.7-30.3,0.6-37.6c-0.5-3.3-3.2-5.8-6.4-6.1l0,0c-4.7-0.4-8.8,3.4-8.5,8.1
		c0.1,2.1,0.4,4.5,1,7.3c2.2,11.1,6.4,62.7,6.4,62.7c0.1,1.4-0.3,3.2-0.5,3.7c-0.6,1.5-1.1,2.9,1,2.9c1.6,0,1.8-0.4,4-0.1
		c1.4,0.2,2.6,0.1,3.4,0.1c0.5,0,0.6-0.7,0.1-0.9c-1.3-0.4-3.2-0.8-4.3-1.4c-1.2-0.6-1.7-0.7-1.7-2.2c0-0.4,0-0.7,0.1-1.1L121.4,291
		z"/>
	<path fill="#C3417D" d="M122.5,331.2c-1.2-0.4-3.1-0.8-4.2-1.3c-0.5,0.2-1.1,0.3-1.7,0.3c-1.1,0-2-0.3-2.8-0.8
		c-0.6,1.4-1,2.7,1,2.7c1.6,0,1.8-0.4,4-0.1c1.4,0.2,2.6,0.1,3.4,0.1C122.9,332,123,331.3,122.5,331.2z"/>
	<path fill="#FAB9AF" d="M94.9,295.3c0,0,9.6-0.6,10.2-1.9c4.2-8.6,8.5-38.1,7.4-46.3l-7.3-0.6c-3.7-0.2-7.1,2.2-8.1,5.7
		c-1.6,5.3-3.1,14.2-1.7,27.3C95.3,279.4,97.7,288.7,94.9,295.3z"/>
	<path fill="#FAB9AF" d="M102.9,284.3c-0.1,0-0.2,0.1-0.4,0.1c-4.1,1.1-29.4,8.4-34.1,9.7c-0.7,0.1-1.4,0.2-1.6,0.2
		c-0.9,0-1.3-0.2-1.8-0.4c-1.3-0.5-1.9,0.2-2.7,2.1c-0.7,1.6-2.7,1.4-2.6,2.8c0.2,1.9,0.7,3.2,1.2,3.2c0.7,0.1,0.6-0.5,1-2.3
		c0.2-0.7,1.6-1.5,3-2c1.6-0.6,3.2-1,4.9-1c4.7-0.2,15.8-0.6,24.9-1.5c2.9-0.3,5.9-0.8,8-1.1V284.3z"/>
	<path fill="#C3417D" d="M66.2,294.3c-0.5-0.1-0.8-0.2-1.1-0.3c-1.3-0.5-1.9,0.2-2.7,2.1c-0.7,1.6-2.7,1.4-2.6,2.8
		c0.2,1.9,0.7,3.2,1.2,3.2c0.7,0.1,0.6-0.5,1-2.3c0.1-0.6,1.1-1.2,2.3-1.7C64.4,296.6,65,295.2,66.2,294.3z"/>
	<pattern  id="SVGID_12_" xlink:href="#Unnamed_Pattern_2" patternTransform="matrix(1 0 0 1 0 459.7609)">
	</pattern>
	<path fill="#5B0EEB" stroke="url(#SVGID_12_)" stroke-width="0.3271" stroke-miterlimit="10" d="M117.1,324.7l4.3-33.7
		c3-16.4,1.7-30.3,0.6-37.6c-0.5-3.3-3.2-5.8-6.4-6.1h0c-4.7-0.4-8.8,3.4-8.5,8.1c0.1,2.1,0.4,4.5,1,7.3c2,10.3,5.5,55.5,6.1,61.9
		H117.1z"/>
	<pattern  id="SVGID_13_" xlink:href="#Unnamed_Pattern_2" patternTransform="matrix(1 0 0 1 0 459.7609)">
	</pattern>
	<path fill="#5B0EEB" stroke="url(#SVGID_13_)" stroke-width="0.3271" stroke-miterlimit="10" d="M108,262.8
		c1.1,5.7,2.7,22.2,4,36.8c0.5-1.8,1-3.6,1.4-5.5c1.2-5.6,1.4-11.3,2.1-17c0.7-5.2,2.8-10.3,3-15.5c0.1-1.6,0.7-2.8,1.7-3.6
		c1.4-1.1,2.1-2.8,1.8-4.6c0,0,0,0,0,0c-0.5-3.3-3.2-5.8-6.4-6.1h-0.2c-4.8,0-8.6,4-8.3,8.8C107.2,258.1,107.5,260.3,108,262.8z"/>
	<path fill="#7B41F4" d="M112.5,247l-7.3-0.6c-3.7-0.2-7.1,2.2-8.1,5.7c-1.6,5.3-3.1,14.2-1.7,27.3l0.5,6.9
		c-8.1,2.3-20.6,5.4-25.7,6.9l0.6,4c4.8-0.2,15.1-1.1,24.2-1.9c0,0,9.3-0.5,10.2-1.9C110.5,285.4,113.6,255.2,112.5,247z"/>
	<path fill="#FFE65A" d="M148.3,217.6l-17,8.3c-7-1.6-18.9-8.1-22.6-8.8c-0.4,1.9-1.1,3.8-0.9,6.2c0.3,2.4,2,4.3,4.3,4.9
		c6.8,1.7,16.7,4.8,20.9,3.7c5.6-1.5,16.2-11.3,16.2-11.3C149.7,219.8,149.5,217.9,148.3,217.6z"/>
	<path fill="#FFE65A" d="M148.1,217.6l-17,8.3c-7-1.6-18.9-8.1-22.6-8.8c-0.4,1.9-1.1,3.8-0.9,6.2c0.3,2.4,2,4.3,4.3,4.9
		c6.8,1.7,16.7,4.8,20.9,3.7c5.6-1.5,16.2-11.3,16.2-11.3C149.5,219.8,149.3,217.9,148.1,217.6z"/>
	<path fill="#FFD23C" d="M116.6,236.9c-0.2-0.5-1.1-2-0.2-3c0.7-0.9,1.8-2.9,1.6-4.1c-0.3-1.3-0.1-3.1-1.7-5.3
		c-4.3-6.2-7.7-7.3-7.7-7.3c-2.5-0.1-7,0.4-10.9,0.6c-12.9,0.6-7.3,7.4-7.3,7.4c1.5,1.5,2.8,3.3,3.7,5.3c1.6,3.4,3.7,7.8,4.9,10.4
		c0.5,1.6-1,6.4-1.5,8.1l-1.1,3.4c-0.2,0.5,0.1,1.1,0.6,1.2c5.6,1.9,17,2.2,24.2-0.1c0.8-0.3,1.2-1.2,0.8-1.9L116.6,236.9z"/>
	<path fill="#FAB9AF" d="M96.7,198.8c-3.7,1-4.4,4.1-3.1,9c0.5,1.9,1.8,3.4,2.8,4.4c0.7,0.7,1.2,1.7,1.1,2.8l0,3
		c0.2,2.7,1.8,3.8,3.7,3.8c1,0,2-0.5,2.6-1.2c0.8-0.9,0.5-2.2,0-3.2l-0.4-0.7c-0.6-1-0.3-2.3,0.7-2.8c0.8-0.4,1.6-1,2.1-1.6
		c0.5-0.6,0.8-4.9-1.2-9.5C103,198.1,100.5,197.8,96.7,198.8z"/>
	<path fill="#FF9488" d="M91.8,202.5c3-5.9,9.5-7.8,12.8-5.8c1.8,1.1,4.2,5.7,0.3,5.8c-1,0-1.9-0.3-2.7-0.8
		c-0.3-0.2-0.6-0.2-0.9-0.2l-2.6,0.9c-2.1,0.7-3.2,3-2.5,5.1l0.3,0.8c0.1,0.4-0.3,0.7-0.6,0.5l-0.2-0.3c-0.4-0.7-1.1-1.3-1.9-1.5
		C92.1,206.6,90,206,91.8,202.5z"/>
	<pattern  id="SVGID_14_" xlink:href="#Unnamed_Pattern_2" patternTransform="matrix(1 0 0 1 0 459.7609)">
	</pattern>
	<path fill="#5B0EEB" stroke="url(#SVGID_14_)" stroke-width="0.3271" stroke-miterlimit="10" d="M119.8,249.8l-11.1,3
		c-0.6,0.2-1.2-0.3-1.2-0.9l-0.9-19.6c0-0.4,0.3-0.8,0.7-1l11-3c0.6-0.2,1.2,0.3,1.2,0.9l1,19.6
		C120.5,249.3,120.3,249.7,119.8,249.8z"/>
	<path fill="#FAB9AF" d="M117.5,237.7c-0.9,0.6-1.9,1-2.3,1.3c-0.1,0.1-0.4,0.5-0.5,0.6c-0.3,0.3-0.7,0.9-1.1,1l-1.7,0.6
		c-0.8,0.3-1.3,0.9-1.1,1.7l0,0c0.3,0.9,1.2,1.1,2.1,0.7l1.2-0.4c0.7-0.3,1.5-0.3,2.2-0.3c1.6,0,3.1-0.9,4.3-1.7
		c0.7-0.5,0.6-1.4,0.4-3c-0.1-1-0.5-2.5-1.1-1.8c-0.3,0.4,0.1,3.1-2.4,3.2c-0.1,0-0.4,0-0.5-0.1c-0.1-0.4,0.8-0.8,1.1-1.1
		c0.5-0.5,0.7-1,0.5-1.3C118.5,236.8,118.2,237.3,117.5,237.7z"/>
	<path fill="#FFE65A" d="M87.5,222.2c1.9-6.1,8.4-3,8.4,1.4c0,2,0.4,13-0.5,16.8c-0.4,1.5-0.4,2.6,1.4,2.4c0,0,0,0,0,0l16.9-2.6
		c0.9,1.2,0.6,2.3,0.2,3.5c0,0-12.6,5.7-19.2,7.4c-1.7,0.4-5.4,1.1-6.4-1.3C87.3,247.1,86,227.2,87.5,222.2z"/>
	<path fill="#FF9488" d="M100.3,241c0.8-3.9,0.2-8.1-1.7-11.6c-1.3-2.5-2.3-5.7-3.1-8.5c-0.8-2.7-1.9-4.9-2.1-7.7
		c-0.3-4.1,0.8-8.2,4.5-11c1.6-1.2,1.8-2.8,3.8-3c-0.4-0.6-0.9-1.1-1.5-1.6c0,0-7.1-2.9-9.8,1.8c-2.6,4.7-2.6,10.9-8.2,18.7
		c-10.4,14.4-8.4,20.8-3.3,26.4C84.6,250.8,98.8,248.1,100.3,241z"/>
	<path fill="#FAB9AF" d="M95.6,208.3c0.6,1,1.2,2.4,0.3,2.9c-0.9,0.5-2.9-0.9-3.4-2c-0.6-1-0.1-1.6,0.8-2.1
		C94.2,206.6,95,207.3,95.6,208.3z"/>
</g>
<g>
	<path fill="#FAB9AF" d="M283.5,357.3l1.4,5.3c0.5,1.8,1.2,3,1.2,3c0.6,0.9,0.6,2.5-0.9,2.5c0,0-1.9-0.4-3.9,0.3
		c-2,0.7-4.6,0.1-4.6-0.4c0-1.2,1.1-0.2,3-1.5c0.6-0.4,1.3-0.9,1.8-1.3c1.6-1.3,0.2-4.5-0.8-6.2c-0.4-0.6,0-2.3,0.7-2.4l0.5-0.1
		C282.6,356.3,283.3,356.7,283.5,357.3z"/>
	<path fill="#FAB9AF" d="M282.3,312c-0.4-1-0.7-2-0.9-2.4c-0.1-0.2-0.4-0.5-0.5-0.6c-0.3-0.3-0.7-0.8-0.8-1.2l-0.3-1.7
		c-0.1-0.8-0.6-1.4-1.5-1.3l0,0c-0.9,0.1-1.2,1-1,1.9l0.2,1.2c0.2,0.7,0,1.4-0.1,2.2c-0.2,1.5,0.4,3.1,1,4.3c0.4,0.8,1.5,1.1,3,1.5
		c0.7,0.2,2,0.3,1.4-0.5c-0.5-0.7-2.7-1.4-2.5-3.7c0-0.1,0.1-0.4,0.2-0.4c0.4-0.1,0.6,0.8,0.9,1.3c0.4,0.6,0.9,0.8,1.1,0.7
		C283,313,282.6,312.7,282.3,312z"/>
	<path fill="#FFE65A" d="M271,273.5c1.6-4.6-3-6.2-6.3-2.8c-2.8,2.9-12.4,21.9-15.2,24.8c-1.7,1.8-10.2,6.2-16.4,9.4l0.6,4.2
		c5.4-1.8,13-4.5,17.1-6.6C260.9,297.1,268.1,281.8,271,273.5z"/>
	<path fill="#FAB9AF" d="M312.6,356.3l1.6,5.3c0.8,2.2,1.4,3.5,1.4,3.5c0.7,1.1,0.3,2.9-1,2.9c0,0-2.3-0.4-4.6,0.3
		c-2.4,0.8-5.2,0.1-5.4-0.5c-0.4-1.1,1.3-0.3,3.5-1.8c0.7-0.5,1.5-1,2.2-1.5c1.9-1.5,0.2-5.2-0.9-7.3c-0.4-0.8,0-1.7,0.9-1.9
		l0.5-0.1C311.6,355.1,312.4,355.5,312.6,356.3z"/>
	<pattern  id="SVGID_15_" xlink:href="#Unnamed_Pattern_2" patternTransform="matrix(1 0 0 1 0 459.7609)">
	</pattern>
	<path fill="#5B0EEB" stroke="url(#SVGID_15_)" stroke-width="0.3271" stroke-miterlimit="10" d="M296.5,294.9l-17.3-1.5
		c0,0-6.1,22-7.8,31.8c-1.2,7.1,9.5,34.5,9.5,34.5c1.2,0.1,2.4-0.1,3.3-0.4c0,0-2-24.3-0.9-30.2c1.2-6.1,9.1-17.5,10.4-20.6
		C298.4,297.2,296.5,294.9,296.5,294.9z"/>
	<path fill="#7B41F4" d="M292.9,295.1c-1.8,9.6-5.8,24,1.9,37.5c7.7,13.5,15.6,27.6,15.6,27.6c1,0,2.3-0.4,3.2-1.1
		c0,0-1.5-6.1-3.5-13.2c-2.2-8.2-5.1-17.8-4.3-22.8c1.5-9.4,3.2-21.9,2.7-28C308.1,289,293.8,290,292.9,295.1z"/>
	<path fill="#FFC305" d="M292.3,307.7c-5.7,3.9-13.4,1.7-16.4-4.5l-12.3-25.9c-1.5-3.1,0-6.9,3.3-8.1l9.3-3.5
		c3.1-1.2,6.6-0.3,8.8,2.1l22.7,24.7c0.6,0.6,0.7,1.6,0,2.3c-2.3,2.3-8,7.8-15.1,12.7C292.4,307.6,292.3,307.6,292.3,307.7z"/>
	<g>
		<path fill="#0091C8" d="M272.9,259.3c-0.1-1.4,1.3-4-0.9-5c-1.3-0.7-2.2-1.8-2.6-2.6c-0.1-0.3-0.3-0.6-0.4-0.9c0,0,0,0,0,0
			c0,0,0,0,0,0c0-0.1-0.1-0.2-0.1-0.3c-1.5-3.3-5.1-2.4-9.3-0.4c-3.3,1.5-5.3,5.5-5.4,8.5c0,0.8,0.4,1.7,0.7,2.4
			c2.7,6.4,8.5,6.4,12.8,5.1c1.4,0.8,4.8-1.1,5.8-2.4C274.3,262.2,272.9,260.7,272.9,259.3z"/>
		<path fill="#FAB9AF" d="M260.7,253c3.5-1.6,6,0.3,8.1,4.9c0.8,1.7,0.8,3.8,0.7,5.2c-0.1,1,0.2,2,0.9,2.8l2,2.3
			c1.6,2.2,1.1,4-0.4,5.3c-0.7,0.6-1.8,0.9-2.8,0.8c-1.1-0.2-1.8-1.3-2.1-2.4l-0.1-0.8c-0.2-1.1-1.3-1.9-2.4-1.7c-3,0.6-4.6-2-7.4-6
			C254.5,259,257.2,254.6,260.7,253z"/>
		<path fill="#0091C8" d="M251.6,254.7l2.3-0.3c0.8-0.1,1.6-0.5,2.3-1l3.5-3c2.4-1.1,7.1-1.6,8.2,2.2l0.7,2.7
			c0.3,1.1-0.2,2.2-1.2,2.7c0,0,0,0,0,0c0.1,0.4-0.1,0.8-0.5,0.9c-0.4,0.2-0.9,0-1.1-0.4l0,0c-0.5-1.1-1.7-1.7-2.9-1.5
			c-1.5,0.3-2.9,0.9-4.3,2c-2.4,2-6.2,1.6-7.8-1.1c-0.1-0.2-0.2-0.4-0.3-0.5C249.9,256.2,250.5,254.9,251.6,254.7z"/>
		<path fill="#FAB9AF" d="M267,258.9c0.5,1.1,1.3,1.8,2.3,1.3c1-0.5,1-2.2,0.5-3.3c-0.5-1.1-1.3-1-2.3-0.6
			C266.5,256.8,266.5,257.8,267,258.9z"/>
	</g>
	<g>
		<linearGradient id="SVGID_16_" gradientUnits="userSpaceOnUse" x1="225.2666" y1="301.0047" x2="265.883" y2="342.1663">
			<stop  offset="6.531980e-02" style="stop-color:#FF337C"/>
			<stop  offset="0.3322" style="stop-color:#C2227D"/>
			<stop  offset="1" style="stop-color:#480080"/>
		</linearGradient>
		<path fill="url(#SVGID_16_)" d="M283.3,331.3v-6.6c0-1.5-1.2-2.8-2.8-2.8h-2.1c-1.3,0-2.5-0.8-2.9-2.1c-0.3-0.9-0.7-1.9-1.1-2.7
			c-0.6-1.2-0.3-2.6,0.6-3.5l1.5-1.5c1.1-1.1,1.1-2.8,0-3.9l-4.7-4.7c-1.1-1.1-2.8-1.1-3.9,0l-1.5,1.5c-0.9,0.9-2.3,1.2-3.5,0.6
			c-0.9-0.4-1.8-0.8-2.7-1.1c-1.2-0.4-2.1-1.6-2.1-2.9v-2.1c0-1.5-1.2-2.8-2.8-2.8h-6.6c-1.5,0-2.8,1.2-2.8,2.8v2.1
			c0,1.3-0.8,2.5-2.1,2.9c-0.9,0.3-1.9,0.7-2.7,1.1c-1.2,0.6-2.6,0.3-3.5-0.6l-1.5-1.5c-1.1-1.1-2.8-1.1-3.9,0l-4.7,4.7
			c-1.1,1.1-1.1,2.8,0,3.9l1.5,1.5c0.9,0.9,1.2,2.3,0.6,3.5c-0.4,0.9-0.8,1.8-1.1,2.7c-0.4,1.2-1.6,2.1-2.9,2.1h-2.1
			c-1.5,0-2.8,1.2-2.8,2.8v6.6c0,1.5,1.2,2.8,2.8,2.8h2.1c1.3,0,2.5,0.8,2.9,2.1c0.3,0.9,0.7,1.9,1.1,2.7c0.6,1.2,0.3,2.6-0.6,3.5
			l-1.5,1.5c-1.1,1.1-1.1,2.8,0,3.9l4.7,4.7c1.1,1.1,2.8,1.1,3.9,0l1.5-1.5c0.9-0.9,2.3-1.2,3.5-0.6c0.9,0.4,1.8,0.8,2.7,1.1
			c1.2,0.4,2.1,1.6,2.1,2.9v2.1c0,1.5,1.2,2.8,2.8,2.8h6.6c1.5,0,2.8-1.2,2.8-2.8v-2.1c0-1.3,0.8-2.5,2.1-2.9
			c0.9-0.3,1.9-0.7,2.7-1.1c1.2-0.6,2.6-0.3,3.5,0.6l1.5,1.5c1.1,1.1,2.8,1.1,3.9,0l4.7-4.7c1.1-1.1,1.1-2.8,0-3.9l-1.5-1.5
			c-0.9-0.9-1.2-2.3-0.6-3.5c0.4-0.9,0.8-1.8,1.1-2.7c0.4-1.2,1.6-2.1,2.9-2.1h2.1C282.1,334.1,283.3,332.9,283.3,331.3z
			 M253.2,343.1c-9.3,0.7-17-7-16.3-16.3c0.6-7.3,6.5-13.3,13.8-13.8c9.3-0.7,17,7,16.3,16.3C266.4,336.6,260.5,342.5,253.2,343.1z"
			/>
		<linearGradient id="SVGID_17_" gradientUnits="userSpaceOnUse" x1="219.1578" y1="293.745" x2="325.7419" y2="405.2356">
			<stop  offset="6.531980e-02" style="stop-color:#FF337C"/>
			<stop  offset="0.3322" style="stop-color:#C2227D"/>
			<stop  offset="1" style="stop-color:#480080"/>
		</linearGradient>
		<path fill="url(#SVGID_17_)" d="M292.6,332.3v-8.6c0-2-1.6-3.6-3.6-3.6h-2.7c-1.7,0-3.2-1.1-3.8-2.7c-0.4-1.2-0.9-2.4-1.5-3.6
			c-0.7-1.5-0.4-3.4,0.8-4.6l1.9-1.9c1.4-1.4,1.4-3.7,0-5.1l-6.1-6.1c-1.4-1.4-3.7-1.4-5.1,0l-1.9,1.9c-1.2,1.2-3,1.5-4.6,0.8
			c-1.2-0.6-2.3-1.1-3.6-1.5c-1.6-0.6-2.7-2.1-2.7-3.8V291c0-2-1.6-3.6-3.6-3.6h-8.6c-2,0-3.6,1.6-3.6,3.6v2.7
			c0,1.7-1.1,3.2-2.7,3.8c-1.2,0.4-2.4,0.9-3.6,1.5c-1.5,0.7-3.4,0.4-4.6-0.8l-1.9-1.9c-1.4-1.4-3.7-1.4-5.1,0l-6.1,6.1
			c-1.4,1.4-1.4,3.7,0,5.1l1.9,1.9c1.2,1.2,1.5,3,0.8,4.6c-0.6,1.2-1.1,2.3-1.5,3.6c-0.6,1.6-2.1,2.7-3.8,2.7h-2.7
			c-2,0-3.6,1.6-3.6,3.6v8.6c0,2,1.6,3.6,3.6,3.6h2.7c1.7,0,3.2,1.1,3.8,2.7c0.4,1.2,0.9,2.4,1.5,3.6c0.7,1.5,0.4,3.4-0.8,4.6
			l-1.9,1.9c-1.4,1.4-1.4,3.7,0,5.1l6.1,6.1c1.4,1.4,3.7,1.4,5.1,0l1.9-1.9c1.2-1.2,3-1.5,4.6-0.8c1.2,0.6,2.3,1.1,3.6,1.5
			c1.6,0.6,2.7,2.1,2.7,3.8v2.7c0,2,1.6,3.6,3.6,3.6h8.6c2,0,3.6-1.6,3.6-3.6v-2.7c0-1.7,1.1-3.2,2.7-3.8c1.2-0.4,2.4-0.9,3.6-1.5
			c1.5-0.7,3.4-0.4,4.6,0.8l1.9,1.9c1.4,1.4,3.7,1.4,5.1,0l6.1-6.1c1.4-1.4,1.4-3.7,0-5.1l-1.9-1.9c-1.2-1.2-1.5-3-0.8-4.6
			c0.6-1.2,1.1-2.3,1.5-3.6c0.6-1.6,2.1-2.7,3.8-2.7h2.7C291,335.9,292.6,334.3,292.6,332.3z M253.5,347.5c-12.1,1-22-9-21.1-21.1
			c0.7-9.5,8.4-17.2,17.9-17.9c12.1-1,22,9,21.1,21.1C270.7,339.1,263,346.8,253.5,347.5z"/>
		<g>
			<linearGradient id="SVGID_18_" gradientUnits="userSpaceOnUse" x1="227.1909" y1="316.481" x2="212.4088" y2="309.5827">
				<stop  offset="6.531980e-02" style="stop-color:#FF337C"/>
				<stop  offset="0.3322" style="stop-color:#C2227D"/>
				<stop  offset="1" style="stop-color:#FF00FF"/>
			</linearGradient>
			<path fill="url(#SVGID_18_)" d="M251.9,355.8c-15.3,0-27.8-12.5-27.8-27.8c0-15.3,12.5-27.8,27.8-27.8
				c15.3,0,27.8,12.5,27.8,27.8C279.7,343.3,267.2,355.8,251.9,355.8z M251.9,303.6c-13.5,0-24.4,11-24.4,24.4
				c0,13.5,11,24.4,24.4,24.4c13.5,0,24.4-11,24.4-24.4C276.4,314.6,265.4,303.6,251.9,303.6z"/>
		</g>
	</g>
	<path fill="#FAB9AF" d="M254.5,295c0.2-0.8-0.2-1.6-1-1.9l-1-0.3c-1.1-0.4-2.1-1-2.8-1.9c-0.4-0.7-2.1-2.2-2.7-1.6
		c-0.5,0.5,1.7,2.3,1,2.7c-0.3,0.2-2.4-0.8-3.7-1.2c-0.8-0.3-1.7,0-1.5,0.6c0.1,0.3-0.1,0.6-0.3,1.1c-0.2,0.5,1.1,2,1.4,2.4
		c0.4,0.5,0.3,0.8,1.8,1.2c1.1,0.3,5.2,0.2,5.2,0.2l1.8,0C253.5,296.2,254.3,295.7,254.5,295L254.5,295z"/>
	<path fill="#FFE65A" d="M252.3,292.7c0,0,19.1,3.1,22.4,2.2c3.3-0.9,0-22.2,0.3-24.8c0.4-4.3,7.3-4.9,9.9,0.7
		c3.3,7.1-3.4,29.9-5.2,31.3s-27.7-5.7-27.7-5.7C251.6,295.5,251.8,294.3,252.3,292.7z"/>
</g>
<g>
	<path fill="#C4A8FF" d="M343.2,80l0.4,1c0.4,0.9,1.1,1.7,2,2l1,0.4c0.5,0.2,0.5,0.9,0,1.1l-1,0.4c-0.9,0.4-1.6,1.1-2,2l-0.4,1
		c-0.2,0.5-0.9,0.5-1.1,0l-0.4-1c-0.4-0.9-1.1-1.7-2-2l-1-0.4c-0.5-0.2-0.5-0.9,0-1.1l1-0.4c0.9-0.4,1.7-1.1,2-2l0.4-1
		C342.4,79.5,343,79.5,343.2,80z"/>
	<path fill="#C4A8FF" d="M287.9,109.6l0.5,1.4c0.5,1.3,1.5,2.3,2.8,2.8l1.4,0.5c0.7,0.3,0.7,1.2,0,1.5l-1.4,0.6
		c-1.3,0.5-2.3,1.5-2.8,2.8l-0.5,1.4c-0.3,0.7-1.2,0.7-1.5,0l-0.5-1.4c-0.5-1.3-1.5-2.3-2.8-2.8l-1.4-0.6c-0.7-0.3-0.7-1.2,0-1.5
		l1.4-0.5c1.3-0.5,2.3-1.5,2.8-2.8l0.5-1.4C286.7,109,287.7,109,287.9,109.6z"/>
	<path fill="#C4A8FF" d="M50.5,213.8l0.5,1.4c0.5,1.3,1.5,2.3,2.8,2.8l1.4,0.6c0.7,0.3,0.7,1.2,0,1.5l-1.4,0.6
		c-1.3,0.5-2.3,1.5-2.8,2.8l-0.5,1.4c-0.3,0.7-1.2,0.7-1.5,0l-0.5-1.4c-0.5-1.3-1.5-2.3-2.8-2.8l-1.4-0.6c-0.7-0.3-0.7-1.2,0-1.5
		l1.4-0.6c1.3-0.5,2.3-1.5,2.8-2.8l0.5-1.4C49.3,213.2,50.2,213.2,50.5,213.8z"/>
	<path fill="#C4A8FF" d="M368.9,198l0.3,0.8c0.3,0.8,0.9,1.4,1.7,1.7l0.8,0.3c0.4,0.2,0.4,0.7,0,0.9l-0.8,0.3
		c-0.8,0.3-1.4,0.9-1.7,1.7l-0.3,0.8c-0.2,0.4-0.7,0.4-0.9,0l-0.3-0.8c-0.3-0.8-0.9-1.4-1.7-1.7l-0.8-0.3c-0.4-0.2-0.4-0.7,0-0.9
		l0.8-0.3c0.8-0.3,1.4-0.9,1.7-1.7l0.3-0.8C368.1,197.6,368.7,197.6,368.9,198z"/>
	<path fill="#C4A8FF" d="M383.4,131.4l0.5,1.4c0.5,1.3,1.5,2.3,2.8,2.8l1.4,0.6c0.7,0.3,0.7,1.2,0,1.5l-1.4,0.6
		c-1.3,0.5-2.3,1.5-2.8,2.8l-0.5,1.4c-0.3,0.7-1.2,0.7-1.5,0l-0.5-1.4c-0.5-1.3-1.5-2.3-2.8-2.8l-1.4-0.6c-0.7-0.3-0.7-1.2,0-1.5
		l1.4-0.6c1.3-0.5,2.3-1.5,2.8-2.8l0.5-1.4C382.2,130.7,383.1,130.7,383.4,131.4z"/>
	<path fill="#C4A8FF" d="M270.1,168.8l0.2,0.6c0.2,0.5,0.6,0.9,1.1,1.1l0.6,0.2c0.3,0.1,0.3,0.5,0,0.6l-0.6,0.2
		c-0.5,0.2-0.9,0.6-1.1,1.1l-0.2,0.6c-0.1,0.3-0.5,0.3-0.6,0l-0.2-0.6c-0.2-0.5-0.6-0.9-1.1-1.1l-0.6-0.2c-0.3-0.1-0.3-0.5,0-0.6
		l0.6-0.2c0.5-0.2,0.9-0.6,1.1-1.1l0.2-0.6C269.6,168.5,270,168.5,270.1,168.8z"/>
	<path fill="#C4A8FF" d="M66.9,42.7l0.2,0.6c0.2,0.5,0.6,0.9,1.1,1.1l0.6,0.2c0.3,0.1,0.3,0.5,0,0.6l-0.6,0.2
		c-0.5,0.2-0.9,0.6-1.1,1.1l-0.2,0.6c-0.1,0.3-0.5,0.3-0.6,0l-0.2-0.6c-0.2-0.5-0.6-0.9-1.1-1.1l-0.6-0.2c-0.3-0.1-0.3-0.5,0-0.6
		l0.6-0.2c0.5-0.2,0.9-0.6,1.1-1.1l0.2-0.6C66.4,42.4,66.8,42.4,66.9,42.7z"/>
	<path fill="#C4A8FF" d="M383,284.4l0.2,0.6c0.2,0.5,0.6,0.9,1.1,1.1l0.6,0.2c0.3,0.1,0.3,0.5,0,0.6l-0.6,0.2
		c-0.5,0.2-0.9,0.6-1.1,1.1l-0.2,0.6c-0.1,0.3-0.5,0.3-0.6,0l-0.2-0.6c-0.2-0.5-0.6-0.9-1.1-1.1l-0.6-0.2c-0.3-0.1-0.3-0.5,0-0.6
		l0.6-0.2c0.5-0.2,0.9-0.6,1.1-1.1l0.2-0.6C382.5,284.1,382.9,284.1,383,284.4z"/>
	<path opacity="0.5" fill="#DFABFF" d="M368.7,342.1l0.2,0.6c0.2,0.5,0.6,0.9,1.1,1.1l0.6,0.2c0.3,0.1,0.3,0.5,0,0.6l-0.6,0.2
		c-0.5,0.2-0.9,0.6-1.1,1.1l-0.2,0.6c-0.1,0.3-0.5,0.3-0.6,0l-0.2-0.6c-0.2-0.5-0.6-0.9-1.1-1.1l-0.6-0.2c-0.3-0.1-0.3-0.5,0-0.6
		l0.6-0.2c0.5-0.2,0.9-0.6,1.1-1.1l0.2-0.6C368.2,341.8,368.6,341.8,368.7,342.1z"/>
	<path fill="#C4A8FF" d="M140.5,181.3l0.2,0.6c0.2,0.5,0.6,0.9,1.1,1.1l0.6,0.2c0.3,0.1,0.3,0.5,0,0.6l-0.6,0.2
		c-0.5,0.2-0.9,0.6-1.1,1.1l-0.2,0.6c-0.1,0.3-0.5,0.3-0.6,0l-0.2-0.6c-0.2-0.5-0.6-0.9-1.1-1.1l-0.6-0.2c-0.3-0.1-0.3-0.5,0-0.6
		l0.6-0.2c0.5-0.2,0.9-0.6,1.1-1.1l0.2-0.6C140,181.1,140.4,181.1,140.5,181.3z"/>
	<path fill="#C4A8FF" d="M319.9,195.5l0.2,0.6c0.2,0.5,0.6,0.9,1.1,1.1l0.6,0.2c0.3,0.1,0.3,0.5,0,0.6l-0.6,0.2
		c-0.5,0.2-0.9,0.6-1.1,1.1l-0.2,0.6c-0.1,0.3-0.5,0.3-0.6,0l-0.2-0.6c-0.2-0.5-0.6-0.9-1.1-1.1l-0.6-0.2c-0.3-0.1-0.3-0.5,0-0.6
		l0.6-0.2c0.5-0.2,0.9-0.6,1.1-1.1l0.2-0.6C319.4,195.2,319.8,195.2,319.9,195.5z"/>
	<path opacity="0.5" fill="#DFABFF" d="M143.4,99.3l0.2,0.6c0.2,0.5,0.6,0.9,1.1,1.1l0.6,0.2c0.3,0.1,0.3,0.5,0,0.6l-0.6,0.2
		c-0.5,0.2-0.9,0.6-1.1,1.1l-0.2,0.6c-0.1,0.3-0.5,0.3-0.6,0l-0.2-0.6c-0.2-0.5-0.6-0.9-1.1-1.1l-0.6-0.2c-0.3-0.1-0.3-0.5,0-0.6
		l0.6-0.2c0.5-0.2,0.9-0.6,1.1-1.1l0.2-0.6C142.9,99,143.3,99,143.4,99.3z"/>
	<path fill="#C4A8FF" d="M27.7,75l0.2,0.6c0.2,0.5,0.6,0.9,1.1,1.1l0.6,0.2c0.3,0.1,0.3,0.5,0,0.6L29,77.7c-0.5,0.2-0.9,0.6-1.1,1.1
		l-0.2,0.6c-0.1,0.3-0.5,0.3-0.6,0l-0.2-0.6c-0.2-0.5-0.6-0.9-1.1-1.1l-0.6-0.2c-0.3-0.1-0.3-0.5,0-0.6l0.6-0.2
		c0.5-0.2,0.9-0.6,1.1-1.1l0.2-0.6C27.2,74.7,27.6,74.7,27.7,75z"/>
	<path fill="#C4A8FF" d="M20.1,259l0.2,0.6c0.2,0.5,0.6,0.9,1.1,1.1L22,261c0.3,0.1,0.3,0.5,0,0.6l-0.6,0.2
		c-0.5,0.2-0.9,0.6-1.1,1.1l-0.2,0.6c-0.1,0.3-0.5,0.3-0.6,0l-0.2-0.6c-0.2-0.5-0.6-0.9-1.1-1.1l-0.6-0.2c-0.3-0.1-0.3-0.5,0-0.6
		l0.6-0.2c0.5-0.2,0.9-0.6,1.1-1.1l0.2-0.6C19.6,258.8,20,258.8,20.1,259z"/>
	<path fill="#C4A8FF" d="M2.7,209.9l0.2,0.6c0.2,0.5,0.6,0.9,1.1,1.1l0.6,0.2c0.3,0.1,0.3,0.5,0,0.6l-0.6,0.2
		c-0.5,0.2-0.9,0.6-1.1,1.1l-0.2,0.6c-0.1,0.3-0.5,0.3-0.6,0l-0.2-0.6c-0.2-0.5-0.6-0.9-1.1-1.1l-0.6-0.2c-0.3-0.1-0.3-0.5,0-0.6
		l0.6-0.2c0.5-0.2,0.9-0.6,1.1-1.1l0.2-0.6C2.2,209.6,2.6,209.6,2.7,209.9z"/>
	<path fill="#C4A8FF" d="M27,175.1l0.2,0.6c0.2,0.5,0.6,0.9,1.1,1.1l0.6,0.2c0.3,0.1,0.3,0.5,0,0.6l-0.6,0.2
		c-0.5,0.2-0.9,0.6-1.1,1.1l-0.2,0.6c-0.1,0.3-0.5,0.3-0.6,0l-0.2-0.6c-0.2-0.5-0.6-0.9-1.1-1.1l-0.6-0.2c-0.3-0.1-0.3-0.5,0-0.6
		l0.6-0.2c0.5-0.2,0.9-0.6,1.1-1.1l0.2-0.6C26.5,174.8,26.9,174.8,27,175.1z"/>
	<path fill="#C4A8FF" d="M334,147.5l0.2,0.4c0.2,0.4,0.5,0.7,0.9,0.9l0.4,0.2c0.2,0.1,0.2,0.4,0,0.5l-0.4,0.2
		c-0.4,0.2-0.7,0.5-0.9,0.9L334,151c-0.1,0.2-0.4,0.2-0.5,0l-0.2-0.4c-0.2-0.4-0.5-0.7-0.9-0.9l-0.4-0.2c-0.2-0.1-0.2-0.4,0-0.5
		l0.4-0.2c0.4-0.2,0.7-0.5,0.9-0.9l0.2-0.4C333.6,147.2,333.9,147.2,334,147.5z"/>
</g>
<g>
	<g>
		<path fill="#FAB9AF" d="M107.2,104.7c0,0-1.4,2.8-3.7,5.1l-1.5,1.4c-0.9,0.9-0.8,2.4,0.3,3c0,0,1.6,0.4,4.9,4.5
			c1.6,1.9,3.9,3.6,4,3c0.3-1.4-0.3-2.4-2-4.3c-4-4.5-0.8-9.2,0.8-11c0.6-0.6-0.1-1.8-0.8-2.2l0,0
			C108.5,103.7,107.6,104,107.2,104.7z"/>
		<pattern  id="SVGID_19_" xlink:href="#Unnamed_Pattern_2" patternTransform="matrix(1 0 0 1 0 459.7609)">
		</pattern>
		<path fill="#5B0EEB" stroke="url(#SVGID_19_)" stroke-width="0.3271" stroke-miterlimit="10" d="M112.6,48.3
			c-6.7-8.7-17.6,0.8-13,7.9C102.9,61.3,110,71.6,116,79c0.1,0.1,0.1,0.1,0.2,0.2c1.3,1.7,1.6,4.1,0.6,6.1c-1.6,3.2-3.5,6.5-5.2,9.6
			c-3.6,6.5-6.3,12.1-6.3,12.1c0.7,0.9,2.3,1.9,3.3,2.1c0,0,15.4-14.7,20.1-25c0.5-1,0.7-2.2,0.7-3.3c0-0.1,0-0.1,0-0.1
			C127.3,72.2,118.2,55.6,112.6,48.3z"/>
	</g>
	<g>
		
			<radialGradient id="SVGID_20_" cx="106.247" cy="99.9848" r="44.0559" gradientTransform="matrix(1 3.475624e-03 -3.105547e-03 0.8935 0.3111 10.2774)" gradientUnits="userSpaceOnUse">
			<stop  offset="0" style="stop-color:#FFFFFF"/>
			<stop  offset="1" style="stop-color:#925EF2"/>
		</radialGradient>
		<circle fill="url(#SVGID_20_)" cx="95.3" cy="114.6" r="48.7"/>
		<g>
			
				<radialGradient id="SVGID_21_" cx="59.6462" cy="78.8249" r="40.2198" gradientTransform="matrix(0.6105 0.792 -1.1328 0.8732 112.5263 -37.2466)" gradientUnits="userSpaceOnUse">
				<stop  offset="0" style="stop-color:#FFFFFF"/>
				<stop  offset="1" style="stop-color:#A780F8"/>
			</radialGradient>
			<circle opacity="0.49" fill="url(#SVGID_21_)" cx="78.4" cy="95.2" r="16.4"/>
			<radialGradient id="SVGID_22_" cx="63.0012" cy="73.8667" r="24.5309" gradientUnits="userSpaceOnUse">
				<stop  offset="0" style="stop-color:#FFFFFF"/>
				<stop  offset="1" style="stop-color:#925EF2"/>
			</radialGradient>
			<circle fill="url(#SVGID_22_)" cx="78.4" cy="95.2" r="13.8"/>
			<path opacity="0.15" d="M88.7,86c0.9,1.8,1.4,3.8,1.4,6c0,7.6-6.2,13.8-13.8,13.8c-4.1,0-7.8-1.8-10.3-4.6
				c2.2,4.6,7,7.9,12.5,7.9c7.6,0,13.8-6.2,13.8-13.8C92.2,91.7,90.9,88.5,88.7,86z"/>
		</g>
		<g>
			
				<radialGradient id="SVGID_23_" cx="105.9786" cy="124.7162" r="32.8268" gradientTransform="matrix(0.6105 0.792 -1.1328 0.8732 182.559 -68.124)" gradientUnits="userSpaceOnUse">
				<stop  offset="0" style="stop-color:#FFFFFF"/>
				<stop  offset="1" style="stop-color:#A780F8"/>
			</radialGradient>
			<circle opacity="0.49" fill="url(#SVGID_23_)" cx="121.3" cy="138.1" r="13.4"/>
			<radialGradient id="SVGID_24_" cx="109.4179" cy="121.6438" r="18.902" gradientUnits="userSpaceOnUse">
				<stop  offset="0" style="stop-color:#FFFFFF"/>
				<stop  offset="1" style="stop-color:#925EF2"/>
			</radialGradient>
			<circle fill="url(#SVGID_24_)" cx="121.3" cy="138.1" r="10.7"/>
			<path opacity="0.15" d="M129.2,131c0.7,1.4,1,3,1,4.6c0,5.9-4.8,10.7-10.7,10.7c-3.2,0-6-1.4-8-3.6c1.7,3.6,5.4,6.1,9.6,6.1
				c5.9,0,10.7-4.8,10.7-10.7C131.9,135.4,130.9,132.9,129.2,131z"/>
		</g>
		<g>
			
				<radialGradient id="SVGID_25_" cx="73.6119" cy="134.935" r="24.2269" gradientTransform="matrix(0.6105 0.792 -1.1328 0.8732 181.5284 -41.1937)" gradientUnits="userSpaceOnUse">
				<stop  offset="0" style="stop-color:#FFFFFF"/>
				<stop  offset="1" style="stop-color:#A780F8"/>
			</radialGradient>
			<circle opacity="0.49" fill="url(#SVGID_25_)" cx="84.9" cy="144.8" r="9.9"/>
			<radialGradient id="SVGID_26_" cx="76.2031" cy="132.7411" r="13.8656" gradientUnits="userSpaceOnUse">
				<stop  offset="0" style="stop-color:#FFFFFF"/>
				<stop  offset="1" style="stop-color:#925EF2"/>
			</radialGradient>
			<circle fill="url(#SVGID_26_)" cx="84.9" cy="144.8" r="7.8"/>
			<path opacity="0.15" d="M90.7,139.6c0.5,1,0.8,2.2,0.8,3.4c0,4.3-3.5,7.8-7.8,7.8c-2.3,0-4.4-1-5.8-2.6c1.3,2.6,3.9,4.4,7.1,4.4
				c4.3,0,7.8-3.5,7.8-7.8C92.7,142.8,92,141,90.7,139.6z"/>
		</g>
		<g>
			
				<radialGradient id="SVGID_27_" cx="93.0399" cy="111.5811" r="18.3047" gradientTransform="matrix(0.6105 0.792 -1.1328 0.8732 162.6397 -59.5418)" gradientUnits="userSpaceOnUse">
				<stop  offset="0" style="stop-color:#FFFFFF"/>
				<stop  offset="1" style="stop-color:#D3C0FB"/>
			</radialGradient>
			<circle fill="url(#SVGID_27_)" cx="101.6" cy="119" r="7.5"/>
			
				<radialGradient id="SVGID_28_" cx="95.2046" cy="110.211" r="15.4226" gradientTransform="matrix(0.6105 0.792 -0.794 0.612 124.5837 -32.6415)" gradientUnits="userSpaceOnUse">
				<stop  offset="0" style="stop-color:#FFFFFF"/>
				<stop  offset="1" style="stop-color:#C4A8FF"/>
			</radialGradient>
			<path fill="url(#SVGID_28_)" d="M107.3,119c0,3.2-2.6,5.7-5.7,5.7c-3.2,0-5.7-2.6-5.7-5.7c0-3.2,2.6-5.7,5.7-5.7
				C104.7,113.3,107.3,115.9,107.3,119z"/>
			<path opacity="0.15" d="M105.8,115.2c0.4,0.7,0.6,1.6,0.6,2.5c0,3.2-2.6,5.7-5.7,5.7c-1.7,0-3.2-0.7-4.3-1.9
				c0.9,1.9,2.9,3.2,5.2,3.2c3.2,0,5.7-2.6,5.7-5.7C107.3,117.6,106.7,116.3,105.8,115.2z"/>
		</g>
		<g>
			
				<radialGradient id="SVGID_29_" cx="48.7181" cy="110.6641" r="26.1682" gradientTransform="matrix(0.6105 0.792 -1.1328 0.8732 144.338 -24.5547)" gradientUnits="userSpaceOnUse">
				<stop  offset="0" style="stop-color:#FFFFFF"/>
				<stop  offset="1" style="stop-color:#A780F8"/>
			</radialGradient>
			<circle opacity="0.49" fill="url(#SVGID_29_)" cx="60.9" cy="121.3" r="10.7"/>
			<radialGradient id="SVGID_30_" cx="51.7625" cy="108.636" r="14.5842" gradientUnits="userSpaceOnUse">
				<stop  offset="0" style="stop-color:#FFFFFF"/>
				<stop  offset="1" style="stop-color:#C8AFF8"/>
			</radialGradient>
			<circle fill="url(#SVGID_30_)" cx="60.9" cy="121.3" r="8.2"/>
			<path opacity="0.15" d="M67,115.9c0.5,1.1,0.8,2.3,0.8,3.6c0,4.5-3.7,8.2-8.2,8.2c-2.4,0-4.6-1.1-6.1-2.8
				c1.3,2.8,4.1,4.7,7.4,4.7c4.5,0,8.2-3.7,8.2-8.2C69.1,119.2,68.3,117.3,67,115.9z"/>
		</g>
		<g>
			
				<radialGradient id="SVGID_31_" cx="103.8706" cy="78.498" r="25.8871" gradientTransform="matrix(0.6105 0.792 -1.1328 0.8732 129.381 -72.3142)" gradientUnits="userSpaceOnUse">
				<stop  offset="0" style="stop-color:#FFFFFF"/>
				<stop  offset="1" style="stop-color:#D3C0FB"/>
			</radialGradient>
			<circle fill="url(#SVGID_31_)" cx="115.9" cy="89" r="10.6"/>
			<radialGradient id="SVGID_32_" cx="106.7841" cy="76.3554" r="25.1824" gradientUnits="userSpaceOnUse">
				<stop  offset="0" style="stop-color:#FFFFFF"/>
				<stop  offset="1" style="stop-color:#E2D4FF"/>
			</radialGradient>
			<circle fill="url(#SVGID_32_)" cx="115.9" cy="89" r="8.2"/>
			<path opacity="0.1" d="M122.1,83.6c0.5,1.1,0.8,2.3,0.8,3.6c0,4.5-3.7,8.2-8.2,8.2c-2.4,0-4.6-1.1-6.1-2.8
				c1.3,2.8,4.1,4.7,7.4,4.7c4.5,0,8.2-3.7,8.2-8.2C124.1,87,123.4,85,122.1,83.6z"/>
		</g>
		<g>
			
				<radialGradient id="SVGID_33_" cx="119.2835" cy="101.3018" r="25.2002" gradientTransform="matrix(0.6105 0.792 -1.1328 0.8732 161.2168 -81.6302)" gradientUnits="userSpaceOnUse">
				<stop  offset="0" style="stop-color:#FFFFFF"/>
				<stop  offset="1" style="stop-color:#D3C0FB"/>
			</radialGradient>
			<path fill="url(#SVGID_33_)" d="M141.3,111.6c0,5.7-4.6,10.3-10.3,10.3c-5.7,0-10.3-4.6-10.3-10.3s4.6-10.3,10.3-10.3
				C136.7,101.3,141.3,105.9,141.3,111.6z"/>
			<radialGradient id="SVGID_34_" cx="124.0363" cy="103.3316" r="17.456" gradientUnits="userSpaceOnUse">
				<stop  offset="0" style="stop-color:#FFFFFF"/>
				<stop  offset="1" style="stop-color:#E2D4FF"/>
			</radialGradient>
			<circle fill="url(#SVGID_34_)" cx="131" cy="111.6" r="8.2"/>
			<path opacity="0.15" d="M137.2,106.1c0.5,1.1,0.8,2.3,0.8,3.6c0,4.5-3.7,8.2-8.2,8.2c-2.4,0-4.6-1.1-6.1-2.8
				c1.3,2.8,4.1,4.7,7.4,4.7c4.5,0,8.2-3.7,8.2-8.2C139.2,109.5,138.4,107.6,137.2,106.1z"/>
		</g>
	</g>
	<g>
		<path fill="#FFA50A" d="M148.8,39.1c-0.1-2.9,0.1-4.5-1.1-7.8c-5.9-0.2-12.6-0.8-15.2-0.3c-4.4,0.8-5.5,5.5-5.5,5.5
			c-0.2,1.3,0.5,2.9,4.5,3C133.6,39.6,141.6,38.5,148.8,39.1z"/>
		<g>
			<linearGradient id="SVGID_35_" gradientUnits="userSpaceOnUse" x1="136.3609" y1="41.328" x2="273.8502" y2="-49.8333">
				<stop  offset="6.531980e-02" style="stop-color:#FF337C"/>
				<stop  offset="0.3322" style="stop-color:#C2227D"/>
				<stop  offset="1" style="stop-color:#480080"/>
			</linearGradient>
			<path fill="url(#SVGID_35_)" d="M201.6,12.9C165,1,136.5-2.7,133.2,2c-4,5.5,8.8,31.2,32.2,61.7L201.6,12.9z"/>
			<path opacity="0.41" fill="#FFFFFF" d="M169.1,58.6l3.9-5.4c-13-16.9-23-27.5-31-39.5c-0.7-1-2.2-0.2-1.7,0.9
				C144.5,23.9,153.2,37.9,169.1,58.6z"/>
			<path opacity="0.19" d="M201.7,12.9C165,1,136.5-2.7,133.2,2c-0.3,0.4,25,6.3,61.1,21.3L201.7,12.9z"/>
		</g>
		<path fill="#FAB9AF" d="M110.6,64l30.1-23.6c1.2-1.1,1.5-2.9,0.7-4.3l-1.6-3.1c-2.5-4.7-8.2-6.7-13-4.5L96,42.4L110.6,64z"/>
		<path fill="#FAB9AF" d="M72.2,97.8c0,0-2.7,1.7-5.8,2.4l-2,0.4c-1.2,0.3-1.9,1.6-1.3,2.8c0,0,1.2,1.1,1.9,6.4
			c0.4,2.5,1.5,5.1,1.9,4.7c1-1,1-2.2,0.5-4.8c-1.1-5.9,4.1-8.3,6.4-9c0.8-0.2,0.9-1.6,0.4-2.3l0,0C73.8,97.6,72.9,97.4,72.2,97.8z"
			/>
		<path opacity="0.1" fill="#450B82" d="M105.4,58.1c-2.5-10.7-15-7.2-13.7,1.2c0.9,6,1.7,19,4.2,28.2c0,0.1,0,0.2,0.1,0.2
			c0.5,2.1-0.3,4.4-2,5.8c-2.8,2.2-5.8,4.5-8.6,6.6c-5.9,4.5-10.7,8.5-10.7,8.5c0,0.1,0.1,0.3,0.2,0.5c-0.8,0.5-1.8,1-2.9,1.4
			l-1.9,0.6c-1.2,0.4-1.7,1.9-0.9,2.9c0,0,1.3,1,2.7,6.1c0.6,2.4,2.1,4.9,2.5,4.4c0.9-1.1,0.7-2.3-0.1-4.8c-1.2-3.8,0.5-6.4,2.5-8
			c0.1,0.1,0.2,0.2,0.3,0.2c0,0,20.1-7.1,28.5-14.5c0.9-0.8,1.5-1.7,2-2.8c0-0.1,0.1-0.1,0.1-0.1C108.9,85.9,107.4,67,105.4,58.1z"
			/>
		<path fill="#7B41F4" d="M106,52.3c-1.2-10.9-15.5-8.4-15.2,0.1c0.2,6.1,0.9,18.6,2.3,27.9c0,0.1,0,0.2,0,0.2
			c0.3,2.2-0.8,4.3-2.7,5.5c-3,1.9-6.3,3.8-9.4,5.5c-6.4,3.7-11.6,7.1-11.6,7.1c0.2,1.1,1,2.8,1.7,3.5c0,0,20.8-4.6,30.1-11
			c0.9-0.7,1.7-1.5,2.3-2.5c0-0.1,0.1-0.1,0.1-0.1C106.2,80.3,107,61.4,106,52.3z"/>
		<path fill="#FFC305" d="M99.8,60.8c2.5,3.6,4.6,5.4,6,6.4c1.1,0.7,2.5,0.6,3.6-0.2l32.5-27.1c0.7-0.6,0.6-1.9,0.2-2.8l-2.2-4.5
			c-2.3-4.6-7.8-6.5-12.5-4.5L96.8,41.8c-1.6,0.7-2.5,2.3-2.4,4C94.8,49.3,95.9,55.3,99.8,60.8z"/>
		<path fill="#FFA50A" d="M139.7,32.7c-1-2.1-2.7-3.6-4.7-4.5c-1.6,1.1-2.2,3.3-1.3,5.1c1,2.1,3.4,2.9,5.5,2c0.5-0.3,1-0.6,1.4-1
			L139.7,32.7z"/>
		<path fill="#FAB9AF" d="M182.2,37.3c-0.7,0.8-1.5,1.4-1.8,1.8c-0.1,0.1-0.3,0.6-0.3,0.7c-0.2,0.4-0.4,1-0.7,1.2l-1.4,1
			c-0.7,0.5-1,1.2-0.6,1.9l0,0c0.5,0.8,1.4,0.7,2.1,0.1l1-0.7c0.6-0.5,1.3-0.6,2-0.8c1.4-0.4,2.6-1.6,3.5-2.7
			c0.5-0.7,0.4-1.8,0.1-3.4c-0.1-0.8-0.6-1.9-1.1-1c-0.4,0.7-0.1,3.1-2.3,3.8c-0.1,0-0.4,0.1-0.5,0c-0.2-0.3,0.5-0.9,0.8-1.3
			c0.4-0.6,0.3-1.1,0.1-1.3C182.9,36.3,182.7,36.8,182.2,37.3z"/>
		<g>
			<path fill="#7B41F4" d="M150,17c-0.1-0.7-0.3-1.6-0.7-2.1c-1.7-2.2-5.2-4.1-8.4-3.6c-4.1,0.7-7.2,1.8-6.7,5.1c0,0.1,0,0.2,0,0.3
				c0,0,0,0,0,0c0,0,0,0,0,0c0,0.3,0.1,0.6,0.2,0.9c0.1,0.8,0.1,2.1-0.6,3.3c-1.1,1.9,1.2,3.2,1.9,4.2c0.7,1.1,0.4,2.9,1.8,3.4
				c1.4,0.5,4.9,0.1,5.5-1.2C147,26.1,151.3,23.1,150,17z"/>
			<path fill="#FAB9AF" d="M144.2,14.7c-3.3-1-5.1,1.1-6.5,5.4c-0.5,1.4-0.5,2.5-0.3,3.6c0.2,1.3-0.1,3.1-0.8,4.2l-1.1,1.7
				c-0.4,0.6-0.3,0.5-0.5,0.9c-0.2,0.4-0.4,1.1-0.4,1.6c0.2,2.3,3.2,3.4,4.9,1.6c0.4-0.5,0.7-1.1,0.8-1.8l0.4-2.7
				c4.1,1.7,5.4-1,7.8-5.8C150.5,19.3,147.5,15.7,144.2,14.7z"/>
			<path fill="#7B41F4" d="M151.9,16.8c0.1-0.7-0.5-1.3-1.3-1.4c-1.1,0-1.9-0.6-2.4-0.9l-3.5-2.3c-2.3-0.7-6.5-0.6-7.1,2.9l-0.3,2.5
				c-0.1,1,0.4,2,1.4,2.3l0,0c0,0.4,0.2,0.7,0.5,0.8c0.4,0.1,0.9-0.1,1-0.5l0,0c0.3-1.1,1.4-1.7,2.5-1.6c1.4,0.1,2.5,1.4,3.9,2.2
				C150.7,22.9,151.7,19.1,151.9,16.8z"/>
			<path fill="#FAB9AF" d="M139.3,20.6c-0.3,1-1,1.7-1.9,1.4c-1-0.3-1.2-1.9-0.9-2.9c0.3-1,1-1.1,2-0.8
				C139.5,18.7,139.6,19.6,139.3,20.6z"/>
		</g>
		<path fill="#FAB9AF" d="M128,38.1c0,0,19.4,11.9,29.6,10.9c7-0.7,21.1-4.7,21.1-4.7s1.1-1.1,1-1.7c-0.1-0.7-0.3-1.7-0.3-1.7
			s-1.1,0.9-2.7,1.1c-5.5,0.6-17.8,1-20.5,0.3c-3.6-0.8-21.1-10.6-24.7-10.5C127.8,32,124.8,35.1,128,38.1z"/>
		<path fill="#FFD23C" d="M147,37.9c-6.3-3-13.8-6.6-16-6.5c-3.9,0.1-6.2,5-3.1,7.1c0,0,7.7,4.7,16.2,8.2
			C145.9,44,146.8,41.2,147,37.9z"/>
	</g>
</g>
<pattern  id="SVGID_36_" xlink:href="#Unnamed_Pattern_2" patternTransform="matrix(1 0 0 1 0 459.7609)">
</pattern>
<path fill="#5B0EEB" stroke="url(#SVGID_36_)" stroke-width="0.3271" stroke-miterlimit="10" d="M286.4,366.9c0-0.4-0.1-0.9-0.4-1.2
	c0,0-0.2-0.3-0.4-0.8c-0.7,0.6-1.7,1-3,1c-0.6,0-1.2-0.1-1.7-0.3c-0.4,0.3-0.9,0.6-1.4,0.9c-1.9,1.2-3.9,0.3-3.9,1.5
	c0,0.5,3.5,1.1,5.5,0.4c0.5-0.2,1-0.3,1.4-0.3v0.2c0,0.2,0.2,0.4,0.4,0.4h3c0.2,0,0.4-0.2,0.4-0.4L286.4,366.9L286.4,366.9z"/>
<pattern  id="SVGID_37_" xlink:href="#Unnamed_Pattern_2" patternTransform="matrix(1 0 0 1 0 459.7609)">
</pattern>
<path fill="#5B0EEB" stroke="url(#SVGID_37_)" stroke-width="0.3271" stroke-miterlimit="10" d="M315.6,365.1c0,0-0.2-0.4-0.5-1.1
	c-0.8,0.7-1.9,1.2-3.2,1.2c-0.7,0-1.4-0.1-2-0.4c-0.6,0.4-1.2,0.9-1.8,1.3c-2.2,1.5-3.9,0.6-3.5,1.8c0.2,0.6,3,1.3,5.4,0.5
	c0.9-0.3,1.9-0.4,2.6-0.4v0.1c0,0.2,0.2,0.4,0.4,0.4h2.5c0.2,0,0.4-0.2,0.4-0.4v-2.1C316,365.9,315.8,365.4,315.6,365.1z"/>
</svg>
