<?xml version="1.0" encoding="utf-8"?>
<!-- Generator: Adobe Illustrator 24.2.2, SVG Export Plug-In . SVG Version: 6.00 Build 0)  -->
<svg version="1.1" id="Layer_1" xmlns="http://www.w3.org/2000/svg" xmlns:xlink="http://www.w3.org/1999/xlink" x="0px" y="0px"
	 viewBox="0 0 512 512" style="enable-background:new 0 0 512 512;" xml:space="preserve">
<style type="text/css">
	.st0{fill:#E2D4FF;}
	.st1{fill:#A780F8;}
	.st2{fill:#D3C0FB;}
	.st3{fill:#9BAACF;}
	.st4{fill:#FFFFFF;}
	.st5{fill:#C8AFF8;}
</style>
<path class="st0" d="M128,0c-17.6,0-32,14.4-32,32v448c0,17.6,14.4,32,32,32h320c17.6,0,32-14.4,32-32V128L352,0H128z"/>
<path class="st1" d="M384,128h96L352,0v96C352,113.6,366.4,128,384,128z"/>
<path class="st2" d="M480,224l-96-96h96V224z"/>
<path class="st3" d="M416,416c0,8.8-7.2,16-16,16H48c-8.8,0-16-7.2-16-16V256c0-8.8,7.2-16,16-16h352c8.8,0,16,7.2,16,16V416z"/>
<path class="st4" d="M132.8,311.5h-22.4c-11.1,0-11.1-16.4,0-16.4h60.5c11.4,0,11.4,16.4,0,16.4h-21.2v64.6c0,11.1-16.9,11.4-16.9,0
	L132.8,311.5L132.8,311.5L132.8,311.5z M224.4,326.2l22.3-27.9c6.7-8.7,19.6,2.4,12.3,10.8c-7.7,9.1-15.7,18.9-23.4,29l26.1,32.5
	c7,9.6-7,18.8-14,9.3l-23.5-30.2L201,380.5c-6.5,9.3-21-1.2-13.7-9.9l25.7-32.6c-8-10.1-15.9-19.9-23.7-29
	c-8.1-9.6,6.9-19.4,12.8-10.5L224.4,326.2L224.4,326.2z M298.3,311.5h-22.4c-11.1,0-11.1-16.4,0-16.4h60.5c11.4,0,11.4,16.4,0,16.4
	h-21.2v64.6c0,11.1-16.9,11.4-16.9,0L298.3,311.5L298.3,311.5z"/>
<path class="st5" d="M400,432H96v16h304c8.8,0,16-7.2,16-16v-16C416,424.8,408.8,432,400,432z"/>
</svg>
